<svg width="1440" height="88" viewBox="0 0 1440 88" fill="#f4f7f9" xmlns="http://www.w3.org/2000/svg">
<path fill-rule="evenodd" clip-rule="evenodd" d="M-122 24.4V0H-25.1429H7.14287H73H104H169.857H202.143H268H299H364.857H397.143H463H494H559.857H592.143H658H689H754.857H787.143H853H884H949.857H982.143H1048H1079H1144.86H1177.14H1243H1274H1339.86H1372.14H1469V24.4V25.6L1459.72 82.8C1458.1 89.6 1448.82 89.6 1447.61 82.8L1443.57 58.8C1442.36 52 1432.68 52 1431.47 58.8L1427.03 82.8C1425.41 89.6 1416.13 89.6 1414.92 82.8L1410.89 58.8C1409.68 52 1399.99 52 1398.78 58.8L1394.34 82.8C1392.72 89.6 1383.44 89.6 1382.23 82.8L1378.2 58.8C1377.17 53.0446 1370.08 52.1605 1367.19 56.1477L1362.86 82.8C1361.99 86.457 1358.91 88.1473 1356.05 87.8709C1353.18 88.1473 1350.19 86.457 1349.54 82.8L1344.89 55.3186C1341.68 52.3241 1335.56 53.4846 1334.61 58.8L1330.17 82.8C1328.56 89.6 1319.28 89.6 1318.06 82.8L1314.03 58.8C1312.82 52 1303.13 52 1301.92 58.8L1297.48 82.8C1295.87 89.6 1286.59 89.6 1285.38 82.8L1281.34 58.8C1280.13 52 1270.44 52 1269.23 58.8L1264.79 82.8C1263.98 86.2161 1261.24 87.916 1258.55 87.8999C1255.86 87.916 1253.22 86.2161 1252.61 82.8L1248.57 58.8C1247.36 52 1237.68 52 1236.47 58.8L1232.03 82.8C1230.41 89.6 1221.13 89.6 1219.92 82.8L1215.89 58.8C1214.68 52 1204.99 52 1203.78 58.8L1199.34 82.8C1197.72 89.6 1188.44 89.6 1187.23 82.8L1183.2 58.8C1182.17 53.0446 1175.08 52.1605 1172.19 56.1477L1167.86 82.8C1166.99 86.457 1163.91 88.1473 1161.05 87.8709C1158.18 88.1473 1155.19 86.457 1154.54 82.8L1149.89 55.3186C1146.68 52.3241 1140.56 53.4846 1139.61 58.8L1135.17 82.8C1133.56 89.6 1124.28 89.6 1123.06 82.8L1119.03 58.8C1117.82 52 1108.13 52 1106.92 58.8L1102.48 82.8C1100.87 89.6 1091.59 89.6 1090.38 82.8L1086.34 58.8C1085.13 52 1075.44 52 1074.23 58.8L1069.79 82.8C1068.98 86.2161 1066.24 87.916 1063.55 87.8999C1060.86 87.916 1058.22 86.2161 1057.61 82.8L1053.57 58.8C1052.36 52 1042.68 52 1041.47 58.8L1037.03 82.8C1035.41 89.6 1026.13 89.6 1024.92 82.8L1020.89 58.8C1019.68 52 1009.99 52 1008.78 58.8L1004.34 82.8C1002.72 89.6 993.443 89.6 992.232 82.8L988.196 58.8C987.172 53.0446 980.076 52.1605 977.186 56.1477L972.861 82.8C971.993 86.457 968.907 88.1473 966.051 87.8709C963.179 88.1473 960.194 86.457 959.543 82.8L954.889 55.3186C951.682 52.3241 945.557 53.4846 944.611 58.8L940.171 82.8C938.557 89.6 929.275 89.6 928.064 82.8L924.029 58.8C922.818 52 913.132 52 911.921 58.8L907.482 82.8C905.868 89.6 896.586 89.6 895.375 82.8L891.339 58.8C890.129 52 880.443 52 879.232 58.8L874.793 82.8C873.982 86.2159 871.236 87.9159 868.55 87.8999C865.864 87.9159 863.219 86.2159 862.611 82.8L858.575 58.8C857.364 52 847.679 52 846.468 58.8L842.029 82.8C840.414 89.6 831.132 89.6 829.921 82.8L825.886 58.8C824.675 52 814.989 52 813.779 58.8L809.339 82.8C807.725 89.6 798.443 89.6 797.232 82.8L793.196 58.8C792.172 53.0446 785.076 52.1605 782.186 56.1477L777.861 82.8C776.993 86.457 773.907 88.1473 771.051 87.8709C768.18 88.1473 765.194 86.457 764.543 82.8L759.889 55.3186C756.682 52.3241 750.557 53.4846 749.611 58.8L745.171 82.8C743.557 89.6 734.275 89.6 733.064 82.8L729.029 58.8C727.818 52 718.132 52 716.921 58.8L712.482 82.8C710.868 89.6 701.586 89.6 700.375 82.8L696.339 58.8C695.129 52 685.443 52 684.232 58.8L679.793 82.8C678.982 86.2159 676.236 87.9159 673.55 87.8999C670.864 87.9159 668.219 86.2159 667.611 82.8L663.575 58.8C662.364 52 652.679 52 651.468 58.8L647.029 82.8C645.414 89.6 636.132 89.6 634.921 82.8L630.886 58.8C629.675 52 619.989 52 618.779 58.8L614.339 82.8C612.725 89.6 603.443 89.6 602.232 82.8L598.196 58.8C597.172 53.0446 590.076 52.1605 587.186 56.1477L582.861 82.8C581.993 86.457 578.907 88.1473 576.051 87.8709C573.18 88.1473 570.194 86.457 569.543 82.8L564.889 55.3186C561.682 52.3241 555.557 53.4846 554.611 58.8L550.171 82.8C548.557 89.6 539.275 89.6 538.064 82.8L534.029 58.8C532.818 52 523.132 52 521.921 58.8L517.482 82.8C515.868 89.6 506.586 89.6 505.375 82.8L501.339 58.8C500.129 52 490.443 52 489.232 58.8L484.793 82.8C483.982 86.2159 481.236 87.9159 478.55 87.8999C475.864 87.9159 473.219 86.2159 472.611 82.8L468.575 58.8C467.364 52 457.679 52 456.468 58.8L452.029 82.8C450.414 89.6 441.132 89.6 439.921 82.8L435.886 58.8C434.675 52 424.989 52 423.779 58.8L419.339 82.8C417.725 89.6 408.443 89.6 407.232 82.8L403.196 58.8C402.172 53.0446 395.076 52.1605 392.186 56.1477L387.861 82.8C386.993 86.457 383.907 88.1473 381.051 87.8709C378.179 88.1473 375.194 86.457 374.543 82.8L369.889 55.3186C366.682 52.3241 360.557 53.4846 359.611 58.8L355.171 82.8C353.557 89.6 344.275 89.6 343.064 82.8L339.029 58.8C337.818 52 328.132 52 326.921 58.8L322.482 82.8C320.868 89.6 311.586 89.6 310.375 82.8L306.339 58.8C305.129 52 295.443 52 294.232 58.8L289.793 82.8C288.982 86.2159 286.236 87.9159 283.55 87.8999C280.864 87.9159 278.219 86.2159 277.611 82.8L273.575 58.8C272.364 52 262.679 52 261.468 58.8L257.029 82.8C255.414 89.6 246.132 89.6 244.921 82.8L240.886 58.8C239.675 52 229.989 52 228.779 58.8L224.339 82.8C222.725 89.6 213.443 89.6 212.232 82.8L208.196 58.8C207.172 53.0446 200.076 52.1605 197.186 56.1477L192.861 82.8C191.993 86.457 188.907 88.1473 186.051 87.8709C183.179 88.1473 180.194 86.457 179.543 82.8L174.889 55.3186C171.682 52.3241 165.557 53.4846 164.611 58.8L160.171 82.8C158.557 89.6 149.275 89.6 148.064 82.8L144.029 58.8C142.818 52 133.132 52 131.921 58.8L127.482 82.8C125.868 89.6 116.586 89.6 115.375 82.8L111.339 58.8C110.129 52 100.443 52 99.2321 58.8L94.7929 82.8C93.9819 86.2159 91.2361 87.9159 88.5504 87.8999C85.8638 87.9159 83.2189 86.2159 82.6107 82.8L78.575 58.8C77.3643 52 67.6786 52 66.4679 58.8L62.0286 82.8C60.4143 89.6 51.1321 89.6 49.9214 82.8L45.8857 58.8C44.675 52 34.9893 52 33.7786 58.8L29.3393 82.8C27.725 89.6 18.4429 89.6 17.2321 82.8L13.1964 58.8C12.1717 53.0446 5.07571 52.1605 2.18574 56.1477L-2.13927 82.8C-3.00742 86.457 -6.09326 88.1473 -8.94871 87.8709C-11.8206 88.1473 -14.806 86.457 -15.4571 82.8L-20.1106 55.3186C-23.3181 52.3241 -29.4429 53.4846 -30.3893 58.8L-34.8286 82.8C-36.4428 89.6 -45.725 89.6 -46.9357 82.8L-50.9714 58.8C-52.1821 52 -61.8679 52 -63.0786 58.8L-67.5179 82.8C-69.1321 89.6 -78.4143 89.6 -79.625 82.8L-83.6607 58.8C-84.8714 52 -94.5571 52 -95.7679 58.8L-100.207 82.8C-101.821 89.6 -111.104 89.6 -112.314 82.8L-122 25.6V24.4Z" fill="#FBEDE2"/>
</svg>
