<svg xmlns="http://www.w3.org/2000/svg" fill="#1f1f1f" viewBox="0 0 20 18"><g id="Calque_2" data-name="Calque 2"><g id="Layer_1" data-name="Layer 1"><g id="Iconly"><g id="Group_7" data-name="Group 7"><g id="Iconly_Bold_Message" data-name="Iconly Bold Message"><g id="Message"><path id="Message-2" d="M14.94,18H5.06A5.06,5.06,0,0,1,0,13V5.05A5.06,5.06,0,0,1,5.06,0h9.88A5.05,5.05,0,0,1,20,5.05V13A5.06,5.06,0,0,1,14.94,18ZM4,5.25a.71.71,0,0,0-.53.22.76.76,0,0,0-.07,1l.13.13,4.55,3.55a3.12,3.12,0,0,0,2,.68,3.17,3.17,0,0,0,2-.68l4.51-3.61.08-.08a.77.77,0,0,0,0-1,.84.84,0,0,0-.53-.26h0a.77.77,0,0,0-.52.2L11,9a1.57,1.57,0,0,1-1,.36A1.59,1.59,0,0,1,9,9L4.5,5.4A.78.78,0,0,0,4,5.25Z"/></g></g></g></g></g></g></svg>