<svg xmlns="http://www.w3.org/2000/svg" fill="#1f1f1f" viewBox="0 0 20 20"><g id="Calque_2" data-name="Calque 2"><g id="Layer_1" data-name="Layer 1"><g id="Iconly"><g id="Group_7" data-name="Group 7"><g id="Iconly_Bold_Info_Square" data-name="Iconly Bold Info Square"><g id="Info_Square" data-name="Info Square"><path id="Info_Square-2" data-name="Info Square-2" d="M14.34,20H5.67C2.28,20,0,17.62,0,14.09V5.92C0,2.38,2.28,0,5.67,0h8.67C17.73,0,20,2.38,20,5.92v8.17C20,17.62,17.73,20,14.34,20ZM10,8.48a.88.88,0,0,0-.87.88v4.42a.88.88,0,1,0,1.75,0V9.36A.87.87,0,0,0,10,8.48Zm0-3.17a.88.88,0,1,0,.87.88A.88.88,0,0,0,10,5.31Z"/></g></g></g></g></g></g></svg>