<svg xmlns="http://www.w3.org/2000/svg" fill="#1f1f1f" viewBox="0 0 20 20"><g id="Calque_2" data-name="Calque 2"><g id="Layer_1" data-name="Layer 1"><g id="Iconly"><g id="Group_7" data-name="Group 7"><g id="Iconly_Bold_Chat" data-name="Iconly Bold Chat"><g id="Chat"><path id="Chat-2" d="M10,20a10,10,0,0,1-4.92-1.3A2.13,2.13,0,0,0,4,18.28a1.21,1.21,0,0,0-.38.06l-2,.6-.23,0a.65.65,0,0,1-.5-.24.67.67,0,0,1-.09-.58l.67-2.25a1.06,1.06,0,0,0-.07-.9A10.51,10.51,0,0,1,0,10,10.16,10.16,0,0,1,2.83,3,10,10,0,0,1,17.14,3a10.14,10.14,0,0,1,2,11.17,9.44,9.44,0,0,1-2.27,3.15A10.2,10.2,0,0,1,10,20ZM14.59,8.74A1.29,1.29,0,1,0,15.87,10h0A1.28,1.28,0,0,0,14.59,8.74ZM10,8.74A1.28,1.28,0,1,0,11.26,10,1.28,1.28,0,0,0,10,8.74h0Zm-4.59,0A1.29,1.29,0,1,0,6.65,10h0A1.28,1.28,0,0,0,5.37,8.74Z"/></g></g></g></g></g></g></svg>