<svg xmlns="http://www.w3.org/2000/svg" fill="#d3d3d3" viewBox="0 0 18 18"><g id="Calque_2" data-name="Calque 2"><g id="Layer_1" data-name="Layer 1"><g id="Iconly_Curved_Star" data-name="Iconly Curved Star"><g id="Star-9"><polyline points="8.46 0.34 8.46 0.34 8.46 15.34 8.46 15.34"/><path id="Stroke_1-258" data-name="Stroke 1-258" d="M9,0C7,0,6.77,3.55,5.56,4.8s-5-.18-5.51,2,2.87,3,3.29,4.89-1.65,4.59.12,5.93S7.13,16,9,16s3.77,3,5.54,1.68-.3-4,.12-5.93S18.47,9.07,18,6.84s-4.3-.79-5.5-2S11,0,9,0Z"/><path d="M7.57,3.14a5.89,5.89,0,0,0-.33,1.54,2.27,2.27,0,0,1-.38,1.44,1.94,1.94,0,0,1-1.18.44c-1.12.14-2.22.33-3.32.55-.14,0-.3.08-.35.22s.09.32.23.41a3.45,3.45,0,0,0,2,.48,14.16,14.16,0,0,0,2-.31A.78.78,0,0,1,7,8c.23.2.12.61-.12.8A1.61,1.61,0,0,1,6,9l-2.1.14a.28.28,0,0,0-.27.12.26.26,0,0,0,0,.15,1.31,1.31,0,0,0,.87.9,3.33,3.33,0,0,0,1.3.1,1.88,1.88,0,0,1,1,.1.59.59,0,0,1,.26.83.89.89,0,0,1-.7.2l-.92,0a.47.47,0,0,0-.17,0,.4.4,0,0,0-.14.17,17.68,17.68,0,0,0-.6,2.75,4.32,4.32,0,0,0-.4,1.42,2.1,2.1,0,0,0,1.88-1.18c.26-.53.31-1.21.78-1.58a2.32,2.32,0,0,1,0,1.81"/></g></g></g></g></svg>